{"title":"Malini &amp; Co (2015) (Poonam Pandey) TELUGU CAM MPEG AC-3","uid":12327245,"size":712819089,"categoryP":"video","categoryS":"movies","magnet":"?xt=urn:btih:2d9423dbfbf061d7af00330f9c90e842ab7cbf64&amp;dn=Malini+%26amp%3B+Co+%282015%29+%28Poonam+Pandey%29+TELUGU+CAM+MPEG+AC-3&amp;tr=udp%3A%2F%2Ftracker.openbittorrent.com%3A80&amp;tr=udp%3A%2F%2Fopen.demonii.com%3A1337&amp;tr=udp%3A%2F%2Ftracker.coppersurfer.tk%3A6969&amp;tr=udp%3A%2F%2Fexodus.desync.com%3A6969","seeders":0,"leechers":2,"uploader":"SS132203","files":3,"time":1441134621,"description":"Malini &amp; Co (2015) (Poonam Pandey) TELUGU CAM MPEG AC-3\n &lt;a href=&quot;\nhttp://imgsparrow.co/image/875&quot; rel=&quot;nofollow&quot; target=&quot;_NEW&quot;&gt;\nhttp://imgsparrow.co/image/875&lt;/a&gt;\n &lt;a href=&quot;\nhttp://imgsparrow.co/image/9b&quot; rel=&quot;nofollow&quot; target=&quot;_NEW&quot;&gt;\nhttp://imgsparrow.co/image/9b&lt;/a&gt;\n\nInfo : - \n\nFormat                      : Matroska\nFormat version              : Version 2\nFile size                   : 665 MiB\nDuration                    : 1h 28mn\nOverall bit rate mode       : Variable\nOverall bit rate            : 1 052 Kbps\nWriting application         : Lavf54.63.104\nWriting library             : Lavf54.63.104\n\nVideo\nID                          : 1\nFormat                      : MPEG Video\nFormat version              : Version 2\nFormat profile              : Main@Main\nFormat settings, BVOP       : No\nFormat settings, Matrix     : Default\nFormat settings, GOP        : N=12\nCodec ID                    : V_MPEG1\nCodec ID/Info               : MPEG 1 or 2 Video\nDuration                    : 1h 28mn\nBit rate mode               : Variable\nBit rate                    : 903 Kbps\nMaximum bit rate            : 920 Kbps\nWidth                       : 720 pixels\nHeight                      : 576 pixels\nDisplay aspect ratio        : 5:4\nOriginal display aspect rat : 16:9\nFrame rate mode             : Constant\nFrame rate                  : 25.000 fps\nStandard                    : PAL\nColor space                 : YUV\nChroma subsampling          : 4:2:0\nBit depth                   : 8 bits\nScan type                   : Progressive\nCompression mode            : Lossy\nBits/(Pixel*Frame)          : 0.087\nTime code of first frame    : 00:00:00:00\nTime code source            : Group of pictures header\nGOP, Open/Closed            : Open\nStream size                 : 571 MiB (86%)\nDefault                     : Yes\nForced                      : No\n\nAudio\nID                          : 2\nFormat                      : AC-3\nFormat/Info                 : Audio Coding 3\nMode extension              : CM (complete main)\nFormat settings, Endianness : Big\nCodec ID                    : A_AC3\nDuration                    : 1h 28mn\nBit rate mode               : Constant\nBit rate                    : 128 Kbps\nChannel(s)                  : 2 channels\nChannel positions           : Front: L R\nSampling rate               : 48.0 KHz\nCompression mode            : Lossy\nDelay relative to video     : 64ms\nStream size                 : 80.9 MiB (12%)\n\nScreens : - \n &lt;a href=&quot;\nhttp://imgsparrow.co/image/87A&quot; rel=&quot;nofollow&quot; target=&quot;_NEW&quot;&gt;\nhttp://imgsparrow.co/image/87A&lt;/a&gt; &lt;a href=&quot;\nhttp://imgsparrow.co/image/87Q&quot; rel=&quot;nofollow&quot; target=&quot;_NEW&quot;&gt;\nhttp://imgsparrow.co/image/87Q&lt;/a&gt; &lt;a href=&quot;\nhttp://imgsparrow.co/image/87Z&quot; rel=&quot;nofollow&quot; target=&quot;_NEW&quot;&gt;\nhttp://imgsparrow.co/image/87Z&lt;/a&gt; &lt;a href=&quot;\nhttp://imgsparrow.co/image/87a&quot; rel=&quot;nofollow&quot; target=&quot;_NEW&quot;&gt;\nhttp://imgsparrow.co/image/87a&lt;/a&gt; &lt;a href=&quot;\nhttp://imgsparrow.co/image/87f&quot; rel=&quot;nofollow&quot; target=&quot;_NEW&quot;&gt;\nhttp://imgsparrow.co/image/87f&lt;/a&gt; &lt;a href=&quot;\nhttp://imgsparrow.co/image/87I&quot; rel=&quot;nofollow&quot; target=&quot;_NEW&quot;&gt;\nhttp://imgsparrow.co/image/87I&lt;/a&gt; &lt;a href=&quot;\nhttp://imgsparrow.co/image/87P&quot; rel=&quot;nofollow&quot; target=&quot;_NEW&quot;&gt;\nhttp://imgsparrow.co/image/87P&lt;/a&gt; &lt;a href=&quot;\nhttp://imgsparrow.co/image/87W&quot; rel=&quot;nofollow&quot; target=&quot;_NEW&quot;&gt;\nhttp://imgsparrow.co/image/87W&lt;/a&gt; &lt;a href=&quot;\nhttp://imgsparrow.co/image/87X&quot; rel=&quot;nofollow&quot; target=&quot;_NEW&quot;&gt;\nhttp://imgsparrow.co/image/87X&lt;/a&gt;\n &lt;a href=&quot;\nhttp://imgsparrow.co/image/N2&quot; rel=&quot;nofollow&quot; target=&quot;_NEW&quot;&gt;\nhttp://imgsparrow.co/image/N2&lt;/a&gt;","torrent":{"xt":"urn:btih:2d9423dbfbf061d7af00330f9c90e842ab7cbf64","amp;dn":"Malini+%26amp%3B+Co+%282015%29+%28Poonam+Pandey%29+TELUGU+CAM+MPEG+AC-3","amp;tr":["udp%3A%2F%2Ftracker.openbittorrent.com%3A80","udp%3A%2F%2Fopen.demonii.com%3A1337","udp%3A%2F%2Ftracker.coppersurfer.tk%3A6969","udp%3A%2F%2Fexodus.desync.com%3A6969"],"infoHash":"2d9423dbfbf061d7af00330f9c90e842ab7cbf64","infoHashBuffer":{"type":"Buffer","data":[45,148,35,219,251,240,97,215,175,0,51,15,156,144,232,66,171,124,191,100]},"announce":[],"urlList":[]}}